<?xml version="1.0" standalone="no"?>
<!DOCTYPE svg PUBLIC "-//W3C//DTD SVG 20010904//EN"
 "http://www.w3.org/TR/2001/REC-SVG-20010904/DTD/svg10.dtd">
<svg version="1.0" xmlns="http://www.w3.org/2000/svg"
 width="300.000000pt" height="300.000000pt" viewBox="0 0 300.000000 300.000000"
 preserveAspectRatio="xMidYMid meet">
<metadata>
Created by potrace 1.11, written by Peter Selinger 2001-2013
</metadata>
<g transform="translate(0.000000,300.000000) scale(0.100000,-0.100000)"
fill="#000000" stroke="none">
<path d="M2070 2713 c0 -4 -21 -9 -48 -10 -63 -2 -249 -40 -307 -63 -16 -6
-32 -12 -35 -12 -59 -7 -316 -120 -435 -192 -60 -36 -209 -142 -256 -182 -68
-57 -216 -210 -270 -279 -68 -85 -159 -219 -159 -233 0 -6 -4 -12 -8 -14 -9
-3 -104 -191 -129 -253 -28 -69 -62 -175 -77 -240 -10 -38 -21 -83 -26 -100
-11 -36 -25 -154 -21 -174 1 -8 -2 -10 -9 -6 -9 6 -9 2 0 -15 8 -15 8 -20 1
-16 -16 10 -15 -386 1 -402 9 -9 9 -12 -1 -12 -9 0 -10 -4 -4 -12 6 -7 10 -20
10 -28 0 -32 22 -162 28 -169 2 -2 208 -4 457 -5 249 -1 458 -5 465 -9 6 -4
14 -4 16 0 4 6 72 9 72 3 0 -1 10 -3 22 -4 12 -1 20 1 17 6 -3 4 8 6 23 3 63
-11 89 -12 101 -2 8 6 12 6 12 -2 0 -6 5 -11 11 -11 5 0 8 4 5 9 -5 7 22 8 32
1 6 -5 80 -4 77 0 -2 3 5 6 15 6 10 0 16 -4 14 -8 -8 -13 11 -9 25 5 11 9 13
9 7 -1 -4 -6 -2 -12 3 -12 6 0 11 5 11 10 0 6 5 10 11 10 5 0 7 -4 4 -10 -9
-14 8 -13 23 2 9 9 15 9 24 0 15 -15 32 -16 23 -2 -3 5 -1 10 4 10 6 0 11 -4
11 -8 0 -12 42 -13 56 -1 7 5 14 6 17 2 3 -5 188 -10 411 -11 l406 -3 0 113
c1 62 2 399 3 748 1 413 5 638 12 642 7 5 6 8 -1 8 -9 0 -12 63 -4 95 1 6 1
12 0 15 -5 15 -4 73 2 76 4 3 5 11 2 19 -10 25 -9 135 1 135 5 0 4 5 -3 12
-16 16 -15 31 1 22 8 -5 8 -2 -2 9 -8 11 -9 17 -2 17 7 0 8 8 1 26 -12 31 -12
37 -1 30 11 -7 9 13 -2 32 -5 6 -5 12 0 12 4 0 8 15 8 34 0 19 -3 32 -7 30 -4
-3 -8 0 -8 5 0 6 5 11 10 11 6 0 10 5 10 11 0 5 -3 8 -7 6 -5 -3 -8 6 -8 19 0
13 3 24 8 24 4 0 7 5 7 11 0 5 -4 8 -9 5 -10 -7 -9 20 2 30 3 4 2 15 -3 25 -7
12 -7 20 0 24 5 3 10 12 10 18 0 7 -4 6 -10 -3 -8 -12 -9 -10 -7 7 2 12 6 26
10 29 4 4 2 13 -4 20 -7 8 -7 14 1 19 5 3 10 11 10 16 0 6 -4 7 -10 4 -5 -3
-10 -1 -10 4 0 6 5 11 10 11 6 0 10 4 10 9 0 12 -36 22 -130 37 -25 4 -56 9
-70 11 -48 9 -450 14 -450 6z"/>
</g>
</svg>
