<svg enable-background="new 0 0 400 400" viewBox="0 0 400 400" xmlns="http://www.w3.org/2000/svg"><path d="m378.6 9.2.8-1c.9.7 1.9 1.4 2.9 2.3l-.9 1.1c-1.1-.9-2-1.7-2.8-2.4zm.5 10.7c.9-2.1 1.6-4.3 2.3-6.7.4.2.8.4 1.3.6-.7 2.1-1.5 4.3-2.2 6.6zm.4-15.2.9-.9c1 .8 2 1.6 2.8 2.4l-1 1c-1-.9-1.9-1.8-2.7-2.5zm12.5-1.3h1.2v1.4h2.7v1.1h-2.7v2.7h-1.2v-.5h-1.8v1.3h4.9v3.8h-1.2v-.5h-3.7c0 .4-.1.9-.1 1.2h5.1v1h-5.2c0 .5-.1.9-.2 1.2h6v1h-5.2c1.1 1.3 2.9 2 5.5 2.2-.4.4-.7.8-.9 1.3-2.9-.5-4.8-1.6-5.7-3.5h-.1c-.8 1.7-2.7 2.9-5.9 3.6-.2-.4-.6-.8-.9-1.1 2.8-.6 4.6-1.4 5.4-2.5h-4.8v-1h5.3c.1-.3.2-.7.2-1.2h-4.9v-1h5c0-.4 0-.8.1-1.2h-3.6v.5h-1.2v-3.8h4.9v-1.3h-1.8v.5h-1.2v-2.7h-2.6v-1.1h2.6v-1.4h1.2v1.4h4.7v-1.4zm-6.7 8.4h3.6c0-.4 0-.9 0-1.4h-3.6zm1.9-4.7h4.7v-1.2h-4.7zm6.7 3.3h-3.7v1.4h3.7z" fill="#fafbfc"/><path d="m384.7 21.4h1.3v2.2h2.8v-2.2h1.3v2.2h4.1v9.1h1.7v1.3h-16.9v-1.3h1.7v-9.1h4.1v-2.2zm.3 13.2.7 1.2c-1.8.9-3.8 1.9-6 2.9-.2-.4-.5-.8-.8-1.3 2.4-1 4.4-2 6.1-2.8zm-3.1-6.5h2.8v-3.2h-2.8zm0 4.6h2.8v-3.3h-2.8zm4.1-4.6h2.8v-3.2h-2.8zm0 4.6h2.8v-3.3h-2.8zm3.6 1.9c2.1.9 4.1 1.8 6.1 2.7l-.7 1.3c-2.2-1.1-4.2-2-6.1-2.9zm3.3-9.7h-2.8v3.2h2.8zm-2.8 7.8h2.8v-3.3h-2.8z" fill="#fafbfc"/><path d="m254.26 365.35c-2.87 1.45-4.77.82-6.98-1.22-7.23-6.68-13.04-14.43-18.37-22.63-1.4-2.16-3.35-4.1-5.42-5.65-10.34-7.75-20.97-15.14-31.19-23.04-10.56-8.17-20.84-16.69-31.08-25.26-3.06-2.56-5.75-5.62-8.29-8.71-4.31-5.23-5.69-10.89-4.04-17.9 2.98-12.65 4.98-25.53 7.29-38.33 1.2-6.63 1.2-13.21-.71-19.82-2.54-8.78-5.33-17.39-10.16-25.25-3.9-6.35-3.39-13.44-2.56-20.42 1-8.38 3.97-15.91 8.24-23.38 6.3-11.01 15.46-19.21 23.89-28.24 7-7.49 13.44-15.51 19.9-23.47 4.56-5.61 5.86-11.66 2.71-18.79-2.08-4.7-3.23-9.64-7.08-13.54-3.81-3.86-5.75-8.65-2.89-14.61 3.48 1.79 7.25 3.12 10.28 5.42 7.22 5.45 13.52 11.63 17.03 20.45 4.85 12.18 10.12 24.23 15.85 36.03 6 12.35 9.65 25.36 11.62 38.77 1.8 12.24 2.47 24.64 3.67 36.97.19 1.99.29 4.06.9 5.94 2.34 7.3 2.08 14.87 2.42 22.35.78 17.16 1.18 34.33 2.12 51.48.44 8.13 1.69 16.23 2.72 24.32.88 6.92.71 13.72-1.19 20.47-.42 1.49-.51 3.13-.47 4.7.56 21.08 1.18 42.16 1.79 63.36zm-48.57-279.42c-.4.35-.75.58-1.02.89-15.24 18.07-30.47 36.14-45.66 54.25-.7.83-1.16 2.02-1.33 3.1-1.6 9.99-.54 19.55 4.12 28.72 6.27 12.34 9.44 25.22 8.9 39.4-.49 12.94-1.99 25.22-8.89 36.34-2.89 4.66-2.11 9.04.23 13.46.94 1.77 1.91 3.57 3.17 5.12 7.79 9.64 15.72 19.17 23.49 28.83 1.94 2.42 4.19 3.89 7.15 4.86 2.61.86 5.01 2.52 7.33 4.1 1.83 1.24 3.37 2.9 5.04 4.37 6.04 5.33 11.97 10.8 18.21 15.88 1.6 1.3 4.4 2.19 6.33 1.78 2.48-.53 3.36-3.18 3.32-5.88-.03-1.79.34-3.58.47-5.37.38-5.17 1.38-10.39.99-15.5-2.65-34.23-5.72-68.41-6.06-102.79-.22-22.28-2.91-44.4-7.52-66.22-2.51-11.89-4.82-23.89-10.09-35-1.91-4.02-4.17-7.83-8.18-10.34z" fill="#010104"/></svg>