<svg enable-background="new 0 0 400 400" viewBox="0 0 400 400" xmlns="http://www.w3.org/2000/svg"><path d="m91.99 350.3c12.32 0 24.08-.1 35.84.02 15.79.17 31.58.59 47.37.71 3.03.02 6.14-.52 9.07-1.34 9.35-2.6 18.93-1.69 28.41-2.24 5.28-.31 10.6-.58 15.78-1.51 6.79-1.22 6.89-2.18 6.11-8.82-1.55-13.22-7-25.25-10.88-37.75-1.88-6.06-4.04-12.03-6.2-18.42-6.43 2.7-12.69 5.4-19.02 7.91-1.11.44-3.02.65-3.68.03-1.06-1-1.66-2.73-1.91-4.24-.17-1.03.63-2.2.93-3.32 1.16-4.38-.1-6.38-4.53-6.78-6.35-.56-11.43-4.28-17.03-6.66-4.33-1.84-4.35-2.04-7.12 1.67-6.61 8.85-10.39 18.83-11.95 29.74-.35 2.47-1.01 4.97-1.97 7.27-4.42 10.53-9.06 20.97-13.49 31.5-1.37 3.25-3.47 5.47-7.69 6.81-.29-2.99-1.07-5.78-.73-8.44 1.37-10.7 3.72-21.3 4.51-32.03.82-11.2 4.35-21.53 7.79-31.97 1.39-4.22 2.65-8.5 4.19-12.66 3.95-10.62 1.99-20.47-4.03-29.63-5.03-7.65-10.29-15.27-12.08-24.33-3.84-19.4-8.97-38.78-6.08-58.81 1.62-11.2 4.28-22.25 6.49-33.36.91-4.57 2.38-9.1 2.63-13.71.23-4.25-.74-8.57-1.32-12.84-1.43-10.49-3.22-20.94-4.32-31.46-.74-7.08.18-14.14 2.89-20.84 10.41 2.72 10.46 2.71 12.31 12.22 2.87 14.76 5.72 29.53 8.44 44.32 2.59 14.12 1.12 28.06-2.04 41.93-2.12 9.29-4.13 18.61-6 27.96-1.7 8.51-.37 16.91 1.72 25.17 3.72 14.69 9.48 28.53 17.81 41.21 1.7 2.59 3.92 5.12 6.48 6.83 8.28 5.54 14.03 13.47 20.53 20.7 3.83 4.26 8.15 7.78 13.97 8.79.89.15 2.4-.33 2.85-1.02 13.64-21.07 29.32-40.87 40.61-63.4 8.42-16.8 14.14-34.51 13.49-53.66-.14-4.09-.77-8.29-1.96-12.2-3.52-11.57-3.72-23.13-.92-34.83.49-2.06.86-4.16 1.08-6.26.74-7.17 2.98-13.72 6.92-19.84 3.54-5.51 6.4-11.46 9.68-17.15 1.47-2.55 3.09-5.07 6.5-5.83 2.7 4.64 4.33 9.56 2.1 14.55-4.36 9.73-6.28 19.95-6.92 30.44-.3 4.94.01 9.94.33 14.89 1.08 16.61 2.56 33.2 3.28 49.82.2 4.59-1.56 9.33-2.76 13.91-3.82 14.68-11.13 27.87-17.91 41.29-3.06 6.04-5.84 12.23-8.97 18.24-2.52 4.86-5.17 9.68-8.13 14.27-2.4 3.72-3.51 7.58-3.57 11.96-.07 5.71-.5 11.41-.66 17.12-.03 1.11.19 2.37.72 3.32 6.34 11.15 8.06 23.12 7.2 35.79-.53 7.71-.01 15.48-.15 23.22-.04 2.14.76 2.89 2.69 3.42 9.45 2.58 19.08 2.32 28.74 2.24 6.76-.06 13.53.19 20.28.5 1.52.07 3.15.72 4.43 1.55.8.52 1.36 1.87 1.44 2.89.04.55-1.07 1.44-1.83 1.75-6.85 2.83-13.62 5.96-20.67 8.16-4.04 1.26-8.56 1.08-12.88 1.3-40.1 2.08-80.2 4.26-120.32 6.02-7.77.34-15.61-1.25-23.43-1.54-8.02-.3-16.06-.26-24.08.01-2.46.08-3.6-.36-4.31-2.75-1.11-3.79-2.57-7.53-4.07-11.81z" fill="#010000"/><g fill="#fafafb"><path d="m361.2 9.6.8-1c.9.7 1.9 1.4 2.9 2.3l-.9 1.1c-1-1-2-1.8-2.8-2.4zm.5 10.6c.9-2.1 1.6-4.3 2.3-6.7.4.2.8.4 1.3.6-.7 2.1-1.5 4.3-2.2 6.6zm.4-15.2.9-.9c1 .8 2 1.6 2.8 2.4l-1 1c-.9-.9-1.8-1.7-2.7-2.5zm12.5-1.2h1.2v1.4h2.7v1.1h-2.7v2.7h-1.2v-.6h-1.8v1.3h4.9v3.8h-1.2v-.5h-3.7c0 .4-.1.9-.1 1.2h5.1v1h-5.2c0 .5-.1.9-.2 1.2h6v1h-5.2c1.1 1.3 2.9 2 5.5 2.2-.4.4-.7.8-.9 1.3-2.9-.5-4.8-1.6-5.7-3.5h-.1c-.8 1.7-2.7 2.9-5.9 3.6-.2-.4-.6-.8-.9-1.1 2.8-.6 4.6-1.4 5.4-2.5h-4.8v-1h5.3c.1-.3.2-.7.2-1.2h-4.9v-1h5c0-.4 0-.8.1-1.2h-3.5v.5h-1.2v-3.8h4.9v-1.3h-1.8v.5h-1.2v-2.7h-2.7v-1h2.6v-1.4h1.2v1.4h4.7v-1.4zm-6.6 8.3h3.6c0-.4 0-.9 0-1.4h-3.6zm1.9-4.6h4.7v-1.3h-4.7zm6.6 3.2h-3.7v1.4h3.7z"/><path d="m385.3 3.8h1.3v2.2h2.8v-2.2h1.3v2.2h4.1v9.1h1.7v1.3h-16.9v-1.3h1.7v-9.1h4.1v-2.2zm.4 13.1.7 1.2c-1.8.9-3.8 1.9-6 2.9-.2-.4-.5-.8-.8-1.3 2.3-1 4.3-1.9 6.1-2.8zm-3.1-6.4h2.8v-3.2h-2.8zm0 4.6h2.8v-3.3h-2.8zm4-4.6h2.8v-3.2h-2.8zm0 4.6h2.8v-3.3h-2.8zm3.7 1.9c2.1.9 4.1 1.8 6.1 2.7l-.7 1.3c-2.2-1.1-4.2-2-6.1-2.9zm3.2-9.7h-2.8v3.2h2.8zm-2.8 7.8h2.8v-3.3h-2.8z"/></g></svg>