<svg enable-background="new 0 0 400 400" viewBox="0 0 400 400" xmlns="http://www.w3.org/2000/svg"><path d="m154.98 320.32c.68-1.8.9-3.31 1.7-4.38 9.43-12.54 18.94-25.01 28.43-37.5.26-.34.47-.82.81-.96 5.63-2.26 5.78-7.13 5.82-12.08.01-.74.13-1.47.27-3-3.73-.41-7.44-1.1-11.15-1.15-3.47-.05-6.98.45-10.43.96-3.42.5-6.64.55-9.93-.88-3.57-1.55-4.11-1.07-5.27 2.79-1.98 6.58-4.18 13.11-4.33 20.1-.02.87-.92 2.09-1.72 2.44-.52.23-2.03-.62-2.35-1.33-.99-2.18-2.18-4.49-2.3-6.8-.33-6.23-.31-12.49-.15-18.73.3-11.45.74-22.89 1.28-34.32.06-1.37 1.09-2.7 1.68-4.06.35.09.71.17 1.06.26 1.25 3.57 3.78 7.26 3.43 10.67-.46 4.46 3 7.81 1.97 12.18-.55 2.34 1.12 4.02 3.49 4.53 2.48.53 5 1.24 7.5 1.22 7.41-.07 14.82-.42 22.23-.75.83-.04 1.64-.61 2.45-.94-.41-.77-.67-1.7-1.26-2.28-6.08-5.9-12.21-11.75-18.32-17.62-.61-.59-1.19-1.21-1.7-1.89-12.41-16.75-25.11-33.37-35.35-51.52-3.65-6.48-7.73-13.62-8.05-22.45 1.18.68 2.01.98 2.6 1.53 6.31 5.86 12.25 12.02 16.19 19.82.24.47.78.95.74 1.38-.41 4.52 3.14 6.7 5.64 9.4 5.85 6.3 11.75 12.52 15.67 20.3.42.83 1.05 1.62 1.76 2.22 7.2 6.09 12.99 13.33 17.86 21.38 1.92 3.18 4.74 5.32 8.71 6.57 1.1-6.87 2.18-13.51 3.23-20.15 1.66-10.57 3.28-21.14 4.98-31.71.32-2.01-.05-3.47-1.35-5.19-2.71-3.62-5.3-7.43-7.29-11.49-8.04-16.33-15.88-32.77-23.67-49.22-1.03-2.18-1.34-4.7-2.25-8.03-4.82-1.6-2.84-6.95-3.73-11.25 1.84-1.28 3.23-1.05 4.41.65 4.55 6.62 9.46 13.03 13.57 19.91 5.69 9.54 10.83 19.42 16.1 29.2 1.3 2.41 2 5.15 3.32 7.54 1.34 2.42 3.11 4.61 5.03 7.4 3.83-5.26 4.94-10.46 5.53-15.81.81-7.36 1.08-14.79 4.13-21.73.38-.88.16-2.04.13-3.08-.11-3.33-.53-6.67-.3-9.97.19-2.64.76-5.1-.6-7.68-.64-1.22-.68-2.94-.51-4.37.67-5.82-1.09-11-3.48-16.19-1.53-3.32-2.25-7.02-3.31-10.56-2.52-8.39-5-16.8-7.54-25.19-1.32-4.37-1.48-8.63.64-13.17 4.92 5.11 8.52 10.73 10.99 16.9 4.16 10.41 7.87 21 11.72 31.54.32.87.41 1.88.36 2.81-.27 5.03.14 9.93 2.46 14.53.27.54.6 1.37.38 1.78-2.8 5.07-.04 10.5-1.04 15.59-1.93 9.84-.03 20.09-3.31 29.76-.3.89-.76 1.96-.52 2.77 1.32 4.43-1.05 7.95-2.21 11.94-2.24 7.68-3.3 15.72-4.72 23.63-2.51 14.01-3.37 28.17-3.96 42.37-.25 6.01-1.47 11.98-2.24 17.97-.5 3.89.58 5.39 4.46 6.1.93.17 1.9.24 2.85.28 12.06.45 24.12.79 36.17 1.4 2.48.13 3.63-.74 3.97-2.88.25-1.54.11-3.15.13-4.72.08-6.43.13-12.85.26-19.28.04-1.8.18-3.61.5-5.37.24-1.33.84-2.6 1.54-4.64 4.6 6.08 7.85 11.86 8.61 18.42.98 8.5 1.11 17.11 1.33 25.68.03 1.21-1.53 2.46-2.5 3.92 5.63 2.46 4.17 7.49 3.27 12.1-.97 4.98-2.5 9.84-3.71 14.78-.59 2.43-1.73 3.82-4.87 2.75-1.73-10.22-3.5-20.71-5.3-31.35-3.13-.2-6.09-.64-9.02-.5-2.9.14-5.77.86-8.87 1.36-.64-2.56-2.73-2.67-5.09-2.73-6.78-.16-13.55-.4-20.32-.86-2.75-.18-4.36.71-5.33 3.25-2.99 7.78-2.72 15.79-1.73 23.83.12.99.86 1.92 1.39 2.83 9.9 17.16 19.8 34.31 29.7 51.47.57.99 1.1 2 1.28 3.9-1.3-.42-2.87-.5-3.84-1.31-5.79-4.8-11.7-9.52-17.04-14.8-2.62-2.59-4.24-6.26-6.09-9.56-1.71-3.04-3.64-5.66-7.75-6.81-.34 4.02-.68 7.78-.99 11.54-.49 6-.81 12.03-1.51 18.01-.65 5.67-1.62 11.31-2.6 16.94-.38 2.17-.04 5.4-3.03 5.43-1.08.01-2.97-3.13-3.14-4.96-.53-5.56-.4-11.17-.52-16.77-.02-1.05.18-2.16-.11-3.13-2.83-9.25-1.44-18.73-1.57-28.12-.04-2.97.19-5.94.1-8.9-.05-1.45-.32-3-.92-4.3-1.29-2.82-3.54-2.77-5.56-.51-4.92 5.53-9.86 11.07-15.17 16.21-3.2 3.05-7.21 5.13-12.91 4.69z" fill="#010000"/><g fill="#fafafb"><path d="m361.2 9.6.8-1c.9.7 1.9 1.4 2.9 2.3l-.9 1.1c-1-1-2-1.8-2.8-2.4zm.5 10.6c.9-2.1 1.6-4.3 2.3-6.7.4.2.8.4 1.3.6-.7 2.1-1.5 4.3-2.2 6.6zm.4-15.2.9-.9c1 .8 2 1.6 2.8 2.4l-1 1c-.9-.9-1.8-1.7-2.7-2.5zm12.5-1.2h1.2v1.4h2.7v1.1h-2.7v2.7h-1.2v-.6h-1.8v1.3h4.9v3.8h-1.2v-.5h-3.7c0 .4-.1.9-.1 1.2h5.1v1h-5.2c0 .5-.1.9-.2 1.2h6v1h-5.2c1.1 1.3 2.9 2 5.5 2.2-.4.4-.7.8-.9 1.3-2.9-.5-4.8-1.6-5.7-3.5h-.1c-.8 1.7-2.7 2.9-5.9 3.6-.2-.4-.6-.8-.9-1.1 2.8-.6 4.6-1.4 5.4-2.5h-4.8v-1h5.3c.1-.3.2-.7.2-1.2h-4.9v-1h5c0-.4 0-.8.1-1.2h-3.5v.5h-1.2v-3.8h4.9v-1.3h-1.8v.5h-1.2v-2.7h-2.7v-1h2.6v-1.4h1.2v1.4h4.7v-1.4zm-6.6 8.3h3.6c0-.4 0-.9 0-1.4h-3.6zm1.9-4.6h4.7v-1.3h-4.7zm6.6 3.2h-3.7v1.4h3.7z"/><path d="m385.3 3.8h1.3v2.2h2.8v-2.2h1.3v2.2h4.1v9.1h1.7v1.3h-16.9v-1.3h1.7v-9.1h4.1v-2.2zm.4 13.1.7 1.2c-1.8.9-3.8 1.9-6 2.9-.2-.4-.5-.8-.8-1.3 2.3-1 4.3-1.9 6.1-2.8zm-3.1-6.4h2.8v-3.2h-2.8zm0 4.6h2.8v-3.3h-2.8zm4-4.6h2.8v-3.2h-2.8zm0 4.6h2.8v-3.3h-2.8zm3.7 1.9c2.1.9 4.1 1.8 6.1 2.7l-.7 1.3c-2.2-1.1-4.2-2-6.1-2.9zm3.2-9.7h-2.8v3.2h2.8zm-2.8 7.8h2.8v-3.3h-2.8z"/></g></svg>