<svg enable-background="new 0 0 400 400" viewBox="0 0 400 400" xmlns="http://www.w3.org/2000/svg"><g fill="#010000"><path d="m258.11 317.21c-1.28 12.9-.93 25.61-3.74 38.01-.26-.01-.52-.02-.78-.03 0-13.15 0-26.3 0-39.45-.3-.1-.59-.2-.89-.3-1.17 1.63-2.2 3.4-3.54 4.88-6.29 6.92-8.64 14.93-7.44 24.19.58 4.5.73 9.08.8 13.62.04 2.39-.51 4.79-.79 7.18-.55-.04-1.1-.08-1.65-.13 0-3.84.43-7.75-.1-11.52-.76-5.43-2.25-10.75-3.35-16.13-.41-2-.22-3.74 1.31-5.54 2.24-2.63 1.67-4.91-1.39-6.19-2.27-.95-2.54-2.57-2.51-4.55.06-4.6-.15-4.87-5.04-6.33-.4 1.52-1.05 3.01-1.13 4.53-.23 4.05-.61 7.94-2.72 11.61-.81 1.41-.4 3.51-.59 5.29-.27 2.53-.81 3.12-3.68 3.83.04-1-.21-2.06.17-2.78 3.61-6.77 2.74-14.27 3.45-21.46.41-4.11-.76-8.36-.69-12.53.12-7.62-4.17-13.55-7.29-19.86-3.54-7.19-7.66-14.1-11.76-21-.74-1.24-2.74-1.65-3.97-2.67-2.03-1.7-3.81-3.7-5.84-5.39-1.84-1.53-3.67-3.15-6.51-2.66-.69.12-1.97-1.11-2.4-2-3.24-6.66-9.71-7.41-16.17-8.97 4.76 8.95 2.55 18.49 3.36 27.72.68 7.7 1.7 15.37 2.54 23.06.54 4.97-.41 9.67-2.63 14.15-.94 1.9-1.74 3.87-2.61 5.82-.37-.09-.73-.18-1.1-.27.47-4.13 1.24-8.26 1.34-12.4.1-4.07-.07-8.23-.86-12.21-.66-3.34-3.99-3.79-6.91-1.87-3.76 2.47-7.59 5.06-11.75 6.64-4.96 1.88-8.12 5.35-8.59 10.06-.61 6.12-.28 12.47.68 18.55.47 2.93 3.11 5.66 5.18 8.14 1.48 1.78 3.56 2.16 5.32-.15 2.58-3.39 5.23-6.73 7.8-10.02.94 3.04-.61 5.86-2.01 8.69-1.13 2.27-2.47 4.44-3.53 6.74-2.57 5.62-7.29 6.37-11.45 1.59-4.52-5.19-6.57-11.49-7.86-18.14-1.11-5.74.38-11.17 1.76-16.58.48-1.86 1.99-3.43 2.78-5.24.99-2.26.73-4.35-1.52-5.86-.52-.35-.91-.92-1.44-1.24-6.6-4.01-9.83-10.53-11.69-17.47-1.14-4.24-.36-9.01-.34-13.54.01-1.14.41-2.28.63-3.43.46-.04.92-.08 1.38-.11.5 2.34 1.73 4.79 1.38 6.99-1.6 9.99 3.83 16.75 10.05 23.19 2.88 2.98 10.86 3.1 13.44-.09.97-1.2 1.15-4.17.33-5.5-4.52-7.42-5.97-15.81-8.18-23.96-2.1-7.76-3.96-15.59-6.05-23.36-.3-1.12-1.09-2.29-1.98-3.04-3.25-2.72-6.58-5.36-10.01-7.85-6.78-4.93-9.72-12.17-11.78-19.79-2.82-10.42-4.29-21.03-1.61-31.72 1.33-5.31 3.52-10.21 6.49-15.01 7.82-12.64 14.67-25.84 15.75-41.13.59-8.42 2.19-16.56 6.34-24.05.61-1.09.85-2.38 1.3-3.57.94-2.47-.02-4.13-1.63-6.19-3.69-4.71-6.82-9.86-10.16-14.83-.87-1.3-1.61-2.71-2.59-3.92-2.63-3.25-3.98-6.91-3.3-11.6 1.17 1.33 2.72 2.49 3.44 4.03 3.68 7.92 10.16 13.75 15.11 20.71 2.88 4.06 6.18 4.32 10.1-.78 1.45-1.89 2.81-3.89 4.45-5.6 1.57-1.63 1.29-3.2.01-4.47-7.3-7.2-14.66-14.33-22.11-21.38-1.56-1.48-3.3-2.65-2.78-5.66 2.48 1.62 4.75 3.07 6.99 4.57 4.22 2.84 8.46 5.65 12.62 8.58 4.59 3.24 8.36 7.07 9.7 12.87.57 2.44 2.13 2.87 5.02 2.54 6.27-.71 9.44-5.11 13.21-9.04 3.74-3.89 7.44-7.83 11.37-11.52 1.42-1.33 3.38-2.2 5.24-2.87.96-.35 2.88-.17 3.22.42.54.95.61 2.77.02 3.65-3.9 5.86-5.15 12.45-5.78 19.26-.09 1.03-.01 2.07-.01 3.23 3.37.43 6.07.51 8.78-1.86 3.05-2.66 7.14-2.72 11.72-2.74-5.33 10.62-14.63 17.29-21 26.2 2.11 2.23 6.85 3.4 9.39 2.27 5.48-2.44 10.92-4.97 16.16-7.37-.52 8.18-11.68 18.07-19.39 17.76-2.7-.11-6.19-.4-7.89 1.06-1.18 1.01.08 4.88.27 7.46.19 2.54.25 5.1.65 7.6.86 5.39-.45 10.28-2.93 14.99-2.42 4.59-4.58 9.33-7.28 13.75-2.15 3.52-3.03 7.22-2.98 11.18.09 6.36.26 12.72.67 19.06.35 5.52 3.4 9.8 6.79 13.98 4.53 5.58 10.53 8.83 16.77 12.01 15.87 8.09 26.63 20.93 33.64 37.13 1.17 2.71 2.65 5.28 3.78 8 1.01 2.42 1.8 4.94 2.54 7.46s.97 5.25 2.03 7.62c1.25 2.79.63 5.04-1 7.93-.94-1.16-1.63-2.11-2.41-2.97-1.45-1.6-2.58-1.88-4.34.07-4.43 4.93-5.43 9.94-1.73 15.69 1.45 2.26 2.19 4.73 1.2 7.54-.29.82.28 2.02.65 2.98.92 2.36 2.17 4.62 2.86 7.04.33 1.17-.33 2.61-.55 3.93-.43-.02-.87-.04-1.3-.07-.25-.96-.72-1.91-.72-2.87.02-3.33-1.68-5.36-4.31-7.23-2.29-1.63-4.02-4.03-6.06-6.02-1.93-1.88-3.95-3.68-6.43-5.98-.24 1.39-.51 1.98-.42 2.51 1.17 6.94 3.23 13.46 7.18 19.47 3.58 5.46 6.46 11.39 9.63 17.12.64 1.16 1.23 2.35 2.01 3.82 5.26-6.54 7.2-13.9 8.77-21.37 1.03-4.92.92-9.66-.79-14.63-1.62-4.7-1.87-9.88-2.16-15.25 13.5 5.71 25.48 13.12 34.48 24.56-.3.49-.6.98-.9 1.48-1.56-.76-3.24-1.34-4.66-2.31-7.32-5-14.57-10.11-22.18-15.41-2.01 4.45-.84 8.17-.47 11.84.72 6.99 3.32 12.99 7.88 18.6 6.11 7.52 11.29 15.81 16.73 23.87 1.74 2.58 3.15 5.43 2.5 9.08-8.02-9.34-14.68-19.38-23.03-28.37zm-136.41-118.17c-.27.07-.54.14-.82.21.38.81.67 1.66 1.14 2.41 1.28 2.03 2.7 3.97 3.94 6.03 3.58 5.94 8.05 11.8 14.65 13.39 7.58 1.83 14.51 4.98 21.71 7.56 8.4 3 16.52 6.58 23.66 12.08 1.84 1.42 3.84 2.64 5.8 3.9 2.8 1.79 4.64 1.11 5.37-2.02 2.3-9.9 4.64-19.79 6.73-29.74.26-1.22-.47-3.43-1.44-4-5.32-3.14-9.83-7.15-14.45-11.2-3.89-3.41-6.8-7.04-7.87-11.86-1.8-8.15-3.18-16.39-4.53-24.63-.39-2.39-.85-4.23-3.16-5.72-2.61-1.69-4.75-4.12-7-6.32-1.58-1.54-2.93-3.34-4.55-4.83-1.38-1.26-3-1.45-4.55-.07-9.43 8.41-22.02 10.64-32.64 16.7-1.07.61-2.2 1.65-2.64 2.75-2.4 6.06-2.65 12.37-1.74 18.76.82 5.53 1.6 11.06 2.39 16.6zm45.38-129.13c-1.35.71-2.71 1.17-3.76 2.02-2.44 1.95-4.85 3.97-7.03 6.19-2.07 2.11-3.69 4.67-5.77 6.75-3.23 3.22-4.22 7.34-4.66 11.51-.86 8.23 3.9 14.69 11.83 16.82 5.76 1.55 11.44 2.9 16.02-2.65.17-.21.58-.28.88-.32 4.53-.53 6.72-3.97 9.07-7.23 4.52-6.25 4.8-14.35.72-20.86-.78-1.25-1.33-2.67-2.24-3.81-.97-1.22-2.1-2.94-3.4-3.18-4.89-.89-9.5-2.05-11.66-5.24zm21.93 38.73c-3.06 2.23-5.98 4.14-8.66 6.35-5.16 4.23-10.81 5.91-17.63 5.88-6.28-.02-11.18-1.44-15.42-6.08-2.7-2.94-4.67-2.34-5.82 1.49-1.33 4.45-2.27 9.02-3.52 13.5-.7 2.51-1.59 4.98-2.58 7.4-.91 2.22-2.11 4.33-3.12 6.51-.79 1.72-1.54 3.47-2.21 5.24-.34.88-.47 1.85-.69 2.77.88-.09 1.86.03 2.63-.31 4.98-2.21 9.8-4.8 14.89-6.72 4.66-1.76 8.35-4.48 11.15-8.51 1.85-2.66 3.67-5.35 5.63-8.22 1.79 1.47 3.4 2.78 4.95 4.05-3.41 7.24-3.16 8.51 2.5 13.99 1.06 1.03 2.03 2.16 3.04 3.25 2.43 2.63 3.54 2.43 4.81-.9 3.81-9.98 7.66-19.94 11.36-29.96 1.18-3.18 1.06-6.43-1.31-9.73zm-31.76 172.15c3.04.77 5.1-.35 7.27-1.96 5.93-4.41 6.24-10.66 5.17-16.87-1.31-7.58-3.4-15.04-5.51-22.44-.51-1.78-2.12-3.88-3.76-4.57-4.61-1.95-9.5-3.25-14.44-4.86.01 18.09 8.43 33.71 11.27 50.7zm77.36-11.45c.45-.11.9-.23 1.35-.34 1.2-4.56 2.43-9.11 3.58-13.68.11-.45-.08-1.07-.32-1.5-5.41-9.55-10.54-19.28-16.4-28.55-3.3-5.22-8.43-8.84-14.56-11.12-.53 1.58-.83 3.17-1.55 4.55-1.74 3.33-.84 5.76 1.7 8.36 9.95 10.16 16.96 22.23 22.32 35.33 1 2.43 2.57 4.63 3.88 6.95zm-1.08 15.25c.21-.25.42-.5.63-.75-.12-.69-.11-1.43-.39-2.06-1.78-4.05-3.49-8.14-5.5-12.08-2.07-4.04-5.09-7.7-6.52-11.93-1.36-4.04-3.37-7.42-5.86-10.72-2.74-3.63-5.22-7.45-8.01-11.03-1.14-1.46-2.8-2.53-4.63-4.13-1.77 4.52-2.99 8.35-4.76 11.91-1.58 3.18-.54 5.23 1.6 7.55 4.15 4.49 8.04 9.21 12.05 13.82.54.63 1.13 1.23 1.78 1.75 2.09 1.67 4.43 3.1 6.28 5 3.03 3.1 5.64 6.61 8.66 9.72 1.25 1.28 3.1 1.98 4.67 2.95zm-40.12-232.87c-.48-.09-.96-.17-1.43-.26-1.36 1.29-2.66 2.66-4.09 3.85-1.84 1.53-3.67 3.14-5.73 4.33-3.13 1.8-3.54 5.78-.57 7.9.86.61 1.79 1.11 2.67 1.69 2.84 1.87 4.7 1.52 5.91-1.57 1.3-3.32 2.37-6.76 3.18-10.23.41-1.81.06-3.8.06-5.71z"/><path d="m203.36 308.66c-.96-9.54.7-18.88 2.86-28.16.32-.02.65-.03.97-.05.1 1.3.49 2.65.26 3.88-1.03 5.51-2.32 10.96-3.34 16.47-.46 2.58-.51 5.24-.75 7.86z"/><path d="m189.27 271.04c-2.98-3.79-1.95-8.13-1.64-12.38.55 4.13 1.1 8.25 1.64 12.38z"/><path d="m153.81 169.89c2.68.95 3.49 2.7 2.66 5.44-1.4 4.61-1.34 4.85 2.75 7.49 4.67 3.01 9.09 6.25 11.69 11.34.95 1.87 1.86 3.82 2.43 5.83 1.6 5.71.47 8.94-3.86 11.81-4.93 3.27-8.92 3.46-13.3-.38-3.21-2.8-6.28-6.12-8.27-9.82-1.29-2.4-1.22-6.07-.56-8.89 1.78-7.59 4.21-15.04 6.46-22.82zm.08 16.4c-.51.95-1.64 2.06-1.55 3.06.33 3.45.65 7.03 1.8 10.26 1.44 4.02 3.83 7.72 8.52 8.62 1.13.22 3.13-.41 3.64-1.28 1.46-2.47-.15-9.49-2.4-11.61-3.13-2.95-6.38-5.78-10.01-9.05z"/></g><path d="m361.2 9.6.8-1c.9.7 1.9 1.4 2.9 2.3l-.9 1.1c-1-1-2-1.8-2.8-2.4zm.5 10.6c.9-2.1 1.6-4.3 2.3-6.7.4.2.8.4 1.3.6-.7 2.1-1.5 4.3-2.2 6.6zm.4-15.2.9-.9c1 .8 2 1.6 2.8 2.4l-1 1c-.9-.9-1.8-1.7-2.7-2.5zm12.5-1.2h1.2v1.4h2.7v1.1h-2.7v2.7h-1.2v-.6h-1.8v1.3h4.9v3.8h-1.2v-.5h-3.7c0 .4-.1.9-.1 1.2h5.1v1h-5.2c0 .5-.1.9-.2 1.2h6v1h-5.2c1.1 1.3 2.9 2 5.5 2.2-.4.4-.7.8-.9 1.3-2.9-.5-4.8-1.6-5.7-3.5h-.1c-.8 1.7-2.7 2.9-5.9 3.6-.2-.4-.6-.8-.9-1.1 2.8-.6 4.6-1.4 5.4-2.5h-4.8v-1h5.3c.1-.3.2-.7.2-1.2h-4.9v-1h5c0-.4 0-.8.1-1.2h-3.5v.5h-1.2v-3.8h4.9v-1.3h-1.8v.5h-1.2v-2.7h-2.7v-1h2.6v-1.4h1.2v1.4h4.7v-1.4zm-6.6 8.3h3.6c0-.4 0-.9 0-1.4h-3.6zm1.9-4.6h4.7v-1.3h-4.7zm6.6 3.2h-3.7v1.4h3.7z" fill="#fafafb"/><path d="m385.3 3.8h1.3v2.2h2.8v-2.2h1.3v2.2h4.1v9.1h1.7v1.3h-16.9v-1.3h1.7v-9.1h4.1v-2.2zm.4 13.1.7 1.2c-1.8.9-3.8 1.9-6 2.9-.2-.4-.5-.8-.8-1.3 2.3-1 4.3-1.9 6.1-2.8zm-3.1-6.4h2.8v-3.2h-2.8zm0 4.6h2.8v-3.3h-2.8zm4-4.6h2.8v-3.2h-2.8zm0 4.6h2.8v-3.3h-2.8zm3.7 1.9c2.1.9 4.1 1.8 6.1 2.7l-.7 1.3c-2.2-1.1-4.2-2-6.1-2.9zm3.2-9.7h-2.8v3.2h2.8zm-2.8 7.8h2.8v-3.3h-2.8z" fill="#fafafb"/></svg>