<svg enable-background="new 0 0 400 400" viewBox="0 0 400 400" xmlns="http://www.w3.org/2000/svg"><path d="m378.6 9.2.8-1c.9.7 1.9 1.4 2.9 2.3l-.9 1.1c-1.1-.9-2-1.7-2.8-2.4zm.5 10.7c.9-2.1 1.6-4.3 2.3-6.7.4.2.8.4 1.3.6-.7 2.1-1.5 4.3-2.2 6.6zm.4-15.2.9-.9c1 .8 2 1.6 2.8 2.4l-1 1c-1-.9-1.9-1.8-2.7-2.5zm12.5-1.3h1.2v1.4h2.7v1.1h-2.7v2.7h-1.2v-.5h-1.8v1.3h4.9v3.8h-1.2v-.5h-3.7c0 .4-.1.9-.1 1.2h5.1v1h-5.2c0 .5-.1.9-.2 1.2h6v1h-5.2c1.1 1.3 2.9 2 5.5 2.2-.4.4-.7.8-.9 1.3-2.9-.5-4.8-1.6-5.7-3.5h-.1c-.8 1.7-2.7 2.9-5.9 3.6-.2-.4-.6-.8-.9-1.1 2.8-.6 4.6-1.4 5.4-2.5h-4.8v-1h5.3c.1-.3.2-.7.2-1.2h-4.9v-1h5c0-.4 0-.8.1-1.2h-3.6v.5h-1.2v-3.8h4.9v-1.3h-1.8v.5h-1.2v-2.7h-2.6v-1.1h2.6v-1.4h1.2v1.4h4.7v-1.4zm-6.7 8.4h3.6c0-.4 0-.9 0-1.4h-3.6zm1.9-4.7h4.7v-1.2h-4.7zm6.7 3.3h-3.7v1.4h3.7z" fill="#fafbfc"/><path d="m384.7 21.4h1.3v2.2h2.8v-2.2h1.3v2.2h4.1v9.1h1.7v1.3h-16.9v-1.3h1.7v-9.1h4.1v-2.2zm.3 13.2.7 1.2c-1.8.9-3.8 1.9-6 2.9-.2-.4-.5-.8-.8-1.3 2.4-1 4.4-2 6.1-2.8zm-3.1-6.5h2.8v-3.2h-2.8zm0 4.6h2.8v-3.3h-2.8zm4.1-4.6h2.8v-3.2h-2.8zm0 4.6h2.8v-3.3h-2.8zm3.6 1.9c2.1.9 4.1 1.8 6.1 2.7l-.7 1.3c-2.2-1.1-4.2-2-6.1-2.9zm3.3-9.7h-2.8v3.2h2.8zm-2.8 7.8h2.8v-3.3h-2.8z" fill="#fafbfc"/><path d="m140.51 300.56c.91-.97 1.74-2.05 2.76-2.9 2.98-2.5 6.43-4.57 8.97-7.46 3.01-3.42 2.43-4.77-1.54-6.86-3-1.58-5.91-3.25-7.35-6.81 6.31-1.12 11.64.39 16.58 5.82 4.97-8.77 9.54-16.95 14.26-25.05 1.21-2.08 2.88-3.89 4.66-6.24 3.62 5.08 3.47 9.59 1.26 13.98-2.55 5.08-5.5 9.97-8.32 14.91-1.8 3.15-1.51 5.12 1.7 5.85 8.77 2 17.07 6.47 26.48 5.28 1.15-.15 2.32-.15 3.47-.33 4.56-.72 5.95-1.84 5.73-6.56-.23-5.15-1.38-10.25-2.1-15.38-.32-2.29-.55-4.6-.83-6.9-.97-8.08-1.7-16.19-2.96-24.23-2.05-13.16-4.49-26.25-6.63-39.4-.34-2.11-1.52-2.84-3.23-2.58-2.9.45-5.72 1.64-8.63 1.85-6.12.43-12.26.54-18.4.54-2.08 0-3.52.6-4.38 2.37-1.66 3.42-3.2 6.88-4.8 10.33-1.29 2.78-2.57 5.56-3.88 8.32-.27.57-.6 1.42-1.05 1.53-5.05 1.29-5.22 6.87-8.61 9.66-3.32 2.73-6.29 5.88-9.39 8.88-3.35 3.24-7.04 5.81-11.87 6.08-.67.04-1.39-.61-2.08-.94.34-.54.58-1.43 1.04-1.57 7.22-2.17 11.37-7.91 15.49-13.52 6.56-8.93 11.76-18.58 14.76-29.35.58-2.07.23-3.33-1.61-4.06-3.51-1.39-7.01-2.87-10.64-3.89-4.26-1.2-8.71-1.74-12.96-2.96-3.41-.98-5.24-7.84-3.03-10.56.34-.41 1.16-.81 1.61-.69 2.89.76 5.7 1.86 8.62 2.49 5.77 1.26 11.57 2.36 17.38 3.37 2.6.45 3.7-1.29 3.76-3.58.03-1.34-.47-2.68-.7-4.03-.64-3.81-1.2-7.64-1.93-11.44-.33-1.74-1.14-3.4-1.44-5.15-.35-2.04-.55-4.13-.47-6.19.02-.67 1-1.62 1.73-1.85.52-.16 1.65.49 1.99 1.08 1.42 2.47 3.02 4.94 3.86 7.62 2.47 7.86 4.72 15.8 6.82 23.77.53 2.01 1.38 2.97 3.34 3.02 7.51.17 15.02.49 22.53.39 3.58-.05 5.17-2.24 5.12-5.88-.01-.95-.03-1.95-.32-2.84-2.96-9.07-1.93-18.45-2.46-27.72-.32-5.63-1.69-11.22-2.91-16.75-.29-1.34-1.62-2.83-2.87-3.5-5.87-3.14-10.11-8.01-14.2-13-1.21-1.47-1.58-3.61-2.37-5.43-5.67-13.13-1.35-25.31 4.11-37.06 6.68-14.37 16.38-26.92 25.54-39.65 9.56 2.99 15.11 9.8 18.68 18.63 2.77 6.85 6.06 13.53 8.34 20.54 1.79 5.49 2.42 11.37 3.54 17.08.04.19-.01.44-.09.62-3.31 7.42-6.24 15.05-10.09 22.18-2.43 4.51-6.11 8.38-9.47 12.33-1.88 2.21-4.36 3.92-6.37 6.04-.88.93-1.83 2.31-1.82 3.48.04 4.98.55 9.95.65 14.93.04 1.95.87 2.95 2.53 3.49 4.33 1.41 8.67 1.87 13.04.09.85-.35 1.96-.79 2.69-.51 2.92 1.13 5.28-.37 7.9-1.1 2.58-.72 5.39-1.28 8.01-1 3.67.39 6.86-.13 10.05-1.93 1.17-.66 2.9-.64 4.31-.46 3.35.42 6.29-.39 8.96-2.36.94-.69 1.77-1.54 2.75-2.15 3.76-2.34 7.76-1.23 8.25 3.06.69 6.12.13 12.39.15 18.59 0 1.31.19 2.62.33 3.92.08.8.61 1.81.29 2.36-1.61 2.82-.69 5.52-.02 8.3.32 1.32.35 2.73.36 4.1.03 7.63-.12 15.27.06 22.9.15 6.34 1.09 12.69.91 19.01-.21 7.49-1.09 14.97-1.93 22.42-1.35 11.89-5.73 22.93-9.84 34.04-.33.88-.84 1.72-1.38 2.49-5.47 7.87-9.88 16.26-12.62 25.49-.3.99-.82 1.95-1.38 2.83-4.37 6.75-8.6 13.61-13.24 20.17-2.99 4.22-6.8 7.85-9.89 12-3.21 4.31-6.32 8.75-8.88 13.46-2.02 3.7-4.79 5.58-8.77 5.71-1.04.03-2.41-.75-3.12-1.59-1.18-1.39-.84-2.79.7-4.06 1.55-1.26 2.91-2.79 4.18-4.34 2.9-3.53 4.39-7.38 4.22-12.22-.37-10.88.01-21.79-.17-32.68-.14-8.39-2.46-10.28-11.01-10.24-6.98.03-13.96-.18-20.94-.39-1.21-.04-2.4-.66-3.62-.91-1.98-.4-4-.61-5.95-1.1-1.59-.4-3.2-.92-4.63-1.69-1.48-.8-2.68-2.09-4.13-2.96-2.74-1.63-4.81-.94-6.87 1.47-1.15 1.34-2.77 2.52-4.42 3.15-2.94 1.13-6.07 1.8-9.11 2.67-.25-.22-.5-.45-.75-.69zm80.97 33.59c.38.18.77.37 1.15.55 2.26-3.11 4.74-6.08 6.72-9.35 2.89-4.8 5.32-9.88 8.14-14.73 3-5.16 4.14-10.62 2.69-16.37-1.48-5.9-4.14-11.58-4.99-17.54-1.33-9.39-1.58-18.94-2.29-28.43-.2-2.64-.28-5.3-.71-7.91-.59-3.59-3-5.67-5.99-5.2-3.43.54-6.81 1.34-10.26 2.03-.09.86-.22 1.48-.21 2.1.2 7.62 1.17 15.31.42 22.83-.77 7.58 2.24 14.92.52 22.42-.13.56.2 1.25.42 1.84 1.2 3.16 1.56 6.27.22 9.56-.4.98.21 2.42.48 3.62.74 3.25 2.02 6.46 2.24 9.74.49 7.25.44 14.54.68 21.8.04 1.02.51 2.03.77 3.04zm9.29-164.64c.38.97.67 1.54.84 2.15 2.77 9.6 6.22 18.85 6.14 29.29-.05 6.3 3.62 12.63 5.6 18.89 6.47.37 12.1-1 17.21-4.47 1.73-1.18 2.39-2.59 2.27-4.78-.29-5.38-.25-10.77-.34-16.16-.05-2.95.23-5.95-.25-8.83-.98-5.89.18-11.57 1-17.31.39-2.71.84-5.45.82-8.18-.02-2.7-1.84-4-4.46-3.59-8.06 1.24-16.09 2.7-24.17 3.71-3.02.38-4.02 1.7-4.46 4.46-.25 1.56-1.45 2.97-2.22 4.45-.33-.07-.65-.14-.98-.2.55.89 1.1 1.78 1.9 3.07.52-1.17.76-1.72 1.1-2.5zm-24.59 4.99c-.28.03-.56.06-.84.09 2.1 14.18 4.11 28.37 6.35 42.53.56 3.51 1.88 6.9 2.88 10.34.61 2.11 2.16 2.69 4.18 2.45 7.13-.84 10.71-4.9 10.5-12.03-.05-1.79-.2-3.61-.57-5.35-1.09-5.13-2.68-10.18-3.4-15.35-.96-6.91-1.28-13.91-1.91-20.86-.55-6.01-2.38-8.15-8.08-9.64-1.74-.45-3.48-.89-5.22-1.35-2.44-.64-3.67.54-3.85 2.82-.17 2.11-.04 4.24-.04 6.35zm42.8 109.36c1.52-1.91 2.97-3.04 3.49-4.5 2.22-6.15 4.73-12.29 6.1-18.65 2.08-9.68 3.43-19.53 4.79-29.35.38-2.75-.18-5.67-2.6-7.98-4.15 2.27-8.21 4.5-12.27 6.72-4.11 2.25-6.13 7.6-4.27 11.95 1.97 4.63 2.29 9.33 1.69 14.28-1.1 9.03-.18 17.87 3.07 27.53zm-45.3-167.52c3.93-1.69 6.3-4.48 7.84-8.11 1.65-3.89 2.8-8.13 5.14-11.55 3.5-5.12 3.58-10.5 2.79-16.11-.28-1.98-1.4-3.84-2.21-5.96-2.28 1.24-4.08 2.12-5.76 3.19-.62.4-1.2 1.18-1.39 1.9-2.06 7.87-4.09 15.74-6.02 23.64-1.04 4.19-1.89 8.44-.39 13zm6.22-59.34c-1-1.92-1.99-4.34-3.43-6.45-1.18-1.73-2.84-1.9-4.53-.18-1.85 1.89-3.66 3.98-5.89 5.29-6.83 4.03-4.73 16.99.16 21.56 2.18 2.04 5.35 1.31 6.51-1.49 1.99-4.78 3.97-9.57 5.9-14.38.46-1.15.71-2.39 1.28-4.35zm-13.56 53.98c.33-.17.65-.34.98-.51-2.42-3.48-4.93-6.93-4.25-11.41.02-.15-.26-.33-.33-.53-1.02-3.05-2.42-6.04-2.93-9.17-.53-3.29-1.91-5.49-5.12-6.81-1.04 2.96-2.02 5.85-3.07 8.73-3.07 8.47-.95 15.8 4.91 22.28.63.69 1.39 1.34 2.23 1.74 2.41 1.18 3.53.48 3.73-2.21.16-2.24.27-4.48.46-7.62 1.48 2.41 2.43 3.96 3.39 5.51z" fill="#010104"/></svg>